<?xml version="1.0" encoding="utf-8"?>
<!-- Generator: Adobe Illustrator 23.0.6, SVG Export Plug-In . SVG Version: 6.00 Build 0)  -->
<svg version="1.1" id="AW" xmlns="http://www.w3.org/2000/svg" xmlns:xlink="http://www.w3.org/1999/xlink" x="0px" y="0px"
	 viewBox="0 0 505.3 168.5" style="enable-background:new 0 0 505.3 168.5;" xml:space="preserve">
<style type="text/css">
	.st0{fill:url(#SVGID_1_);}
	.st1{fill:url(#SVGID_2_);}
	.st2{fill:url(#SVGID_3_);}
	.st3{fill:url(#SVGID_4_);}
	.st4{fill:url(#SVGID_5_);}
	.st5{fill:url(#SVGID_6_);}
	.st6{fill:url(#SVGID_7_);}
	.st7{fill:url(#SVGID_8_);}
	.st8{fill:url(#SVGID_9_);}
	.st9{opacity:0.59;fill:url(#SVGID_10_);enable-background:new    ;}
	.st10{opacity:0.8;fill:url(#SVGID_11_);enable-background:new    ;}
	.st11{opacity:0.45;fill:url(#SVGID_12_);enable-background:new    ;}
	.st12{fill:url(#SVGID_13_);}
	.st13{fill:url(#SVGID_14_);}
</style>
<linearGradient id="SVGID_1_" gradientUnits="userSpaceOnUse" x1="228.85" y1="32.7" x2="228.85" y2="89.6267" gradientTransform="matrix(1 0 0 -1 0 171.2)">
	<stop  offset="0" style="stop-color:#53565A"/>
	<stop  offset="1" style="stop-color:#75787B"/>
</linearGradient>
<path class="st0" d="M255,108.3c0-4.6-1-8.7-2.7-12.4c-4.5-9.4-14-14.4-23.3-14.4c-13.7,0-26.3,10.6-26.3,28.4
	c0,15.8,10.1,28.6,27.1,28.6c7.4,0,15-3.3,19.1-7.4c1.9-2,2.7-3.6,2.7-5.1c0-2.4-2.1-4.2-4.4-4.2c-1.4,0-2.3,0.5-4.4,2.1
	c-3.7,3-8.4,4.9-13.1,4.9c-9.1,0-15.6-6.4-16.2-15.4h36.2C253.3,113.4,255,111.8,255,108.3z M229,91.6c8.6,0,14.1,5.8,15.3,12.8
	h-30.5C215.2,97.4,220.1,91.6,229,91.6z"/>
<linearGradient id="SVGID_2_" gradientUnits="userSpaceOnUse" x1="284.55" y1="32.7" x2="284.55" y2="89.6267" gradientTransform="matrix(1 0 0 -1 0 171.2)">
	<stop  offset="0" style="stop-color:#53565A"/>
	<stop  offset="1" style="stop-color:#75787B"/>
</linearGradient>
<path class="st1" d="M310.7,108.3c0-4.6-1-8.7-2.7-12.4c-4.5-9.4-14-14.4-23.3-14.4c-13.7,0-26.3,10.6-26.3,28.4
	c0,15.8,10.1,28.6,27.1,28.6c7.4,0,15-3.3,19.1-7.4c1.9-2,2.7-3.6,2.7-5.1c0-2.4-2.1-4.2-4.4-4.2c-1.4,0-2.3,0.5-4.4,2.1
	c-3.7,3-8.4,4.9-13.1,4.9c-9.1,0-15.6-6.4-16.2-15.4h36.2C309,113.4,310.7,111.8,310.7,108.3z M284.7,91.6c8.6,0,14.1,5.8,15.3,12.8
	h-30.5C270.8,97.4,275.7,91.6,284.7,91.6z"/>
<linearGradient id="SVGID_3_" gradientUnits="userSpaceOnUse" x1="406.05" y1="32.7" x2="406.05" y2="89.6267" gradientTransform="matrix(1 0 0 -1 0 171.2)">
	<stop  offset="0" style="stop-color:#53565A"/>
	<stop  offset="1" style="stop-color:#75787B"/>
</linearGradient>
<path class="st2" d="M432.2,108.3c0-4.6-1-8.7-2.7-12.4c-4.5-9.4-14-14.4-23.3-14.4c-13.7,0-26.3,10.6-26.3,28.4
	c0,15.8,10.1,28.6,27.1,28.6c7.4,0,15-3.3,19.1-7.4c1.9-2,2.7-3.6,2.7-5.1c0-2.4-2.1-4.2-4.4-4.2c-1.4,0-2.3,0.5-4.4,2.1
	c-3.7,3-8.4,4.9-13.1,4.9c-9.1,0-15.6-6.4-16.2-15.4h36.2C430.6,113.4,432.2,111.8,432.2,108.3z M406.2,91.6
	c8.6,0,14.1,5.8,15.3,12.8H391C392.4,97.4,397.3,91.6,406.2,91.6z"/>
<linearGradient id="SVGID_4_" gradientUnits="userSpaceOnUse" x1="370.1" y1="33.4" x2="370.1" y2="89.0284" gradientTransform="matrix(1 0 0 -1 0 171.2)">
	<stop  offset="0" style="stop-color:#53565A"/>
	<stop  offset="1" style="stop-color:#75787B"/>
</linearGradient>
<path class="st3" d="M375.1,87.2v45.5c0,2.9-2,5.1-5,5.1c-2.5,0-5-1.8-5-5.1V87.2c0-2.9,2.1-5.1,5-5.1
	C372.5,82.2,375.1,83.9,375.1,87.2z"/>
<linearGradient id="SVGID_5_" gradientUnits="userSpaceOnUse" x1="335.15" y1="33.4" x2="335.15" y2="89.0421" gradientTransform="matrix(1 0 0 -1 0 171.2)">
	<stop  offset="0" style="stop-color:#53565A"/>
	<stop  offset="1" style="stop-color:#75787B"/>
</linearGradient>
<path class="st4" d="M341,133.2c-1.4,3.2-3.3,4.6-5.8,4.6s-4.3-1.3-5.7-4.6c-1.5-3.4-17.7-40.3-18.7-42.5c-0.7-1.7-1-2.7-1-3.6
	c0-3,2.5-5,5.3-5c2.3,0,4,1.5,4.8,3.4c2,4.5,4.2,9.5,5.9,13.4c4.5,10.3,7.5,17.8,9.6,23.6c2.2-5.9,5.1-13.1,9.4-23.5
	c1.1-2.7,4.6-10.9,5.8-13.6c0.9-2,2.5-3.4,4.8-3.4c2.8,0,5.1,1.9,5.1,4.8c0,0.9-0.4,2.4-1,3.6C359,92.2,342.4,130,341,133.2z"/>
<linearGradient id="SVGID_6_" gradientUnits="userSpaceOnUse" x1="191" y1="33.4" x2="191" y2="88.8" gradientTransform="matrix(1 0 0 -1 0 171.2)">
	<stop  offset="0" style="stop-color:#53565A"/>
	<stop  offset="1" style="stop-color:#75787B"/>
</linearGradient>
<path class="st5" d="M186.1,102.4v30.3c0,2.9-2.1,5.1-5,5.1c-2.5,0-5-1.8-5-5.1v-30.8c0-6.1,1.7-10.9,5.2-14.2
	c3.6-3.4,8.9-5.3,16.1-5.3h2.9c1.8,0,3.2,0.5,4.1,1.3c1,0.9,1.5,2.3,1.5,3.7c0,2.4-1.8,4.9-5.1,4.9h-4c-4,0-6.6,0.9-8.3,2.6
	C186.8,96.8,186.1,99.2,186.1,102.4z"/>
<linearGradient id="SVGID_7_" gradientUnits="userSpaceOnUse" x1="156.8" y1="33.4" x2="156.8" y2="108.8" gradientTransform="matrix(1 0 0 -1 0 171.2)">
	<stop  offset="0" style="stop-color:#53565A"/>
	<stop  offset="1" style="stop-color:#75787B"/>
</linearGradient>
<path class="st6" d="M181.5,67.9c0,2.4-1.8,5.5-5,5.5h-22c-4.3,0-7.1,0.8-8.9,2.6c-1.8,1.8-2.5,4.2-2.5,8.4v10h23.1
	c2.8,0,4.9,2.2,4.9,5c0,2.4-1.7,5-4.9,5h-23.1v28.2c0,2.9-2.6,5.2-5.5,5.2c-2.5,0-5.5-1.9-5.5-5.2v-49c0-6.9,1.8-11.7,5.3-15.2
	c3.6-3.6,8.9-6,16.6-6h22.5C179.3,62.4,181.5,65,181.5,67.9z"/>
<linearGradient id="SVGID_8_" gradientUnits="userSpaceOnUse" x1="468.45" y1="33.4054" x2="468.45" y2="89.0465" gradientTransform="matrix(1 0 0 -1 0 171.2)">
	<stop  offset="0" style="stop-color:#53565A"/>
	<stop  offset="1" style="stop-color:#75787B"/>
</linearGradient>
<path class="st7" d="M477.4,99.8c2,5.8,4.6,14.9,6,20.8c1.7-6,4.6-14.5,6.7-20.2c2-5.6,3-8.6,5-14.2c0.9-2.7,2.6-4.2,5-4.2
	c2.9,0,5.2,1.9,5.2,4.9c0,0.8-0.2,1.9-1,4c-2.3,6.3-13.2,36.5-15.3,42.1c-1.2,3.2-3,4.6-5.5,4.6s-4.6-1.6-5.6-4.6
	c-1.1-3.4-1.9-5.7-3.8-11.4c-2.5-7.6-4.3-14-5.7-19.3c-1.4,5.4-4.1,14.2-5.8,19.4c-1.8,5.5-2.5,7.5-3.8,11.2c-1,3-2.9,4.6-5.5,4.6
	c-2.5,0-4.4-1.6-5.5-4.6c-1.7-4.7-13.3-36.8-15.2-42.1c-0.7-2-1-3-1-4c0-3.2,2.5-4.9,5.3-4.9c2.2,0,4.1,1.3,5,4.2
	c1.9,5.6,3,8.5,5,14.2c1.9,5.3,4.4,13,6.6,20.2c1.5-5.8,3.9-14,6.1-20.7c1.2-3.5,2-6,3-8.7c1.4-3.6,3.3-5.2,5.9-5.2
	c2.6,0,4.5,1.5,5.9,5.2C476.1,96,476.5,96.9,477.4,99.8z"/>
<g>
	
		<radialGradient id="SVGID_9_" cx="-846.426" cy="710.0693" r="161.4478" gradientTransform="matrix(-0.9612 0.2758 0.2863 0.9977 -874.6373 -406.727)" gradientUnits="userSpaceOnUse">
		<stop  offset="0.5416" style="stop-color:#FC1E00"/>
		<stop  offset="0.8544" style="stop-color:#FD7B01"/>
		<stop  offset="1" style="stop-color:#FDA101"/>
	</radialGradient>
	<path class="st8" d="M8.1,38.4c-5.2-5.7-8-10.8-8-17c0-5.9,2.3-11.1,6.1-15c3.9-4,9.9-6.4,16.4-6.4h92.2c6.5,0,12.4,2.4,16.4,6.4
		c3.8,3.9,6.1,9.2,6.1,15c0,5.9-2.3,11.3-6.1,15.2c-3.9,4-9.9,6.7-16.4,6.7h-44c9,9.4,27.1,27,33.3,33.8c5.3,5.8,8,10.5,8,16.9
		c0,5.5-2.3,11.3-6.1,15.2c-3.9,4-9.9,6.7-16.4,6.7H42.8V146c0,6.5-2.3,12.4-6.3,16.4c-3.9,3.8-9.1,6.1-15,6.1s-10.9-2.3-14.8-6.1
		c-4-3.9-6.1-9.9-6.1-16.4V94.9c0-7.2,2-12.1,5.8-15.9c3.9-4,9.8-6.4,16.6-6.4h18.4L8.1,38.4z"/>
	
		<linearGradient id="SVGID_10_" gradientUnits="userSpaceOnUse" x1="23.3317" y1="39.6174" x2="33.3486" y2="56.8879" gradientTransform="matrix(1 0 0 -1 0 171.2)">
		<stop  offset="0" style="stop-color:#FDA101;stop-opacity:0"/>
		<stop  offset="0.1936" style="stop-color:#FB9E02;stop-opacity:0.1936"/>
		<stop  offset="0.3567" style="stop-color:#F79305;stop-opacity:0.3567"/>
		<stop  offset="0.5087" style="stop-color:#EF820B;stop-opacity:0.5087"/>
		<stop  offset="0.654" style="stop-color:#E36912;stop-opacity:0.654"/>
		<stop  offset="0.7946" style="stop-color:#D4491C;stop-opacity:0.7946"/>
		<stop  offset="0.9297" style="stop-color:#C32328;stop-opacity:0.9297"/>
		<stop  offset="1" style="stop-color:#B80C2F"/>
	</linearGradient>
	<path class="st9" d="M0.6,146c0,6.5,2.1,12.4,6.1,16.4c3.9,3.8,8.9,6.1,14.8,6.1c5.9,0,11.1-2.3,15-6.1c4-3.9,6.3-9.9,6.3-16.4
		v-30.1H0.6L0.6,146L0.6,146z"/>
	
		<linearGradient id="SVGID_11_" gradientUnits="userSpaceOnUse" x1="46.3696" y1="77.1552" x2="56.0231" y2="95.159" gradientTransform="matrix(1 0 0 -1 0 171.2)">
		<stop  offset="0.2" style="stop-color:#FC1E00;stop-opacity:0"/>
		<stop  offset="0.3908" style="stop-color:#FC4500;stop-opacity:0.2722"/>
		<stop  offset="0.7377" style="stop-color:#FD8701;stop-opacity:0.7671"/>
		<stop  offset="0.901" style="stop-color:#FDA101"/>
	</linearGradient>
	<path class="st10" d="M23,72.6c-6.8,0-12.7,2.4-16.6,6.4c-3.8,3.9-5.8,8.7-5.8,15.9v21h42.2h40.8L41.4,72.6H23z"/>
	
		<linearGradient id="SVGID_12_" gradientUnits="userSpaceOnUse" x1="65.7184" y1="108.4505" x2="74.4121" y2="129.9681" gradientTransform="matrix(1 0 0 -1 0 171.2)">
		<stop  offset="0.12" style="stop-color:#B80C2F;stop-opacity:0"/>
		<stop  offset="0.232" style="stop-color:#9C0D29;stop-opacity:0.1778"/>
		<stop  offset="0.4729" style="stop-color:#65101C;stop-opacity:0.5601"/>
		<stop  offset="0.6527" style="stop-color:#431114;stop-opacity:0.8456"/>
		<stop  offset="0.75" style="stop-color:#361211"/>
	</linearGradient>
	<path class="st11" d="M41.4,72.6L83.6,116h5.9c6.5,0,12.5-2.7,16.4-6.7c3.8-3.9,6.1-9.7,6.1-15.2c0-6.4-2.7-11.1-8-16.9
		c-6.2-6.8-24.2-24.4-33.3-33.8H12.9L41.4,72.6z"/>
	
		<radialGradient id="SVGID_13_" cx="22.1143" cy="750.751" r="100.3246" fx="62.8764" fy="786.0244" gradientTransform="matrix(0.6814 0.7319 0.4552 -0.4238 -339.7032 332.5214)" gradientUnits="userSpaceOnUse">
		<stop  offset="8.962452e-02" style="stop-color:#C5143D"/>
		<stop  offset="0.9101" style="stop-color:#CF1540;stop-opacity:0"/>
	</radialGradient>
	<path class="st12" d="M8.1,38.4c-5.2-5.7-8-10.8-8-17c0-5.9,2.3-11.1,6.1-15c3.9-4,9.9-6.4,16.4-6.4h92.2c6.5,0,12.4,2.4,16.4,6.4
		c3.8,3.9,6.1,9.2,6.1,15c0,5.9-2.3,11.3-6.1,15.2c-3.9,4-9.9,6.7-16.4,6.7h-44c9,9.4,27.1,27,33.3,33.8c5.3,5.8,8,10.5,8,16.9
		c0,5.5-2.3,11.3-6.1,15.2c-3.9,4-9.9,6.7-16.4,6.7H42.8V146c0,6.5-2.3,12.4-6.3,16.4c-3.9,3.8-9.1,6.1-15,6.1s-10.9-2.3-14.8-6.1
		c-4-3.9-6.1-9.9-6.1-16.4V94.9c0-7.2,2-12.1,5.8-15.9c3.9-4,9.8-6.4,16.6-6.4h18.4L8.1,38.4z"/>
	
		<radialGradient id="SVGID_14_" cx="-81.1102" cy="-255.0122" r="76.779" gradientTransform="matrix(0.9516 -0.3073 -0.1808 -0.5598 50.0727 -171.3477)" gradientUnits="userSpaceOnUse">
		<stop  offset="6.134970e-02" style="stop-color:#F819A5"/>
		<stop  offset="0.2008" style="stop-color:#F8199D;stop-opacity:0.8515"/>
		<stop  offset="0.4122" style="stop-color:#F71988;stop-opacity:0.6262"/>
		<stop  offset="0.6694" style="stop-color:#F51966;stop-opacity:0.3522"/>
		<stop  offset="0.9602" style="stop-color:#F21937;stop-opacity:4.238415e-02"/>
		<stop  offset="1" style="stop-color:#F21930;stop-opacity:0"/>
	</radialGradient>
	<path class="st13" d="M131.1,6.4c-3.9-4-9.9-6.4-16.4-6.4H22.5C16,0,10.1,2.4,6.1,6.4C2.3,10.3,0,15.5,0,21.4c0,6.3,2.8,11.3,8,17
		l33.3,34.2L83.5,116h5.9c6.5,0,12.5-2.7,16.4-6.7c3.8-3.9,6.1-9.7,6.1-15.2c0-6.4-2.7-11.1-8-16.9c-6.2-6.8-24.2-24.4-33.3-33.8h44
		c6.5,0,12.4-2.7,16.4-6.7c3.8-3.9,6.1-9.4,6.1-15.2C137.2,15.5,134.9,10.3,131.1,6.4z"/>
</g>
</svg>
