<svg xmlns="http://www.w3.org/2000/svg" width="2500" height="522" viewBox=".503 .499 199 41.528" id="talktalk">
  <linearGradient id="a" x1="-193.016" x2="-118.142" y1="461.409" y2="413.906" gradientTransform="translate(345.92 -684.74)scale(1.6234)" gradientUnits="userSpaceOnUse">
    <stop offset="0" stop-color="#01aaeb"></stop>
    <stop offset=".089" stop-color="#00a6e7"></stop>
    <stop offset=".167" stop-color="#0097d8"></stop>
    <stop offset=".258" stop-color="#377fc2"></stop>
    <stop offset=".326" stop-color="#6369b1"></stop>
    <stop offset=".382" stop-color="#7956a4"></stop>
    <stop offset=".458" stop-color="#8a3b96"></stop>
    <stop offset=".559" stop-color="#9f248f"></stop>
    <stop offset=".594" stop-color="#a2238e"></stop>
    <stop offset=".649" stop-color="#b21e8e"></stop>
    <stop offset=".716" stop-color="#be1a8d"></stop>
    <stop offset=".816" stop-color="#d0108c"></stop>
    <stop offset=".897" stop-color="#e5028c"></stop>
    <stop offset="1" stop-color="#e5028c"></stop>
  </linearGradient>
  <path fill="url(#a)" d="M65.283.51c-1.156 0-2.084.363-2.742 1.136-.476.541-1.058 1.388-1.058 3.29 0 1.86.033 27.313.04 32.507 0 1.47.356 2.576 1.058 3.369.682.731 1.58 1.136 2.702 1.136 1.148 0 2.059-.39 2.781-1.097.691-.757 1.058-1.754 1.058-6.658V5.053c0-1.518-.34-2.645-1.019-3.407C67.394.883 66.451.51 65.283.51zm13.356 0C77.05.687 75.31 1.66 75.31 5.445v31.998c0 1.505.345 2.63 1.018 3.408.672.707 1.594 1.097 2.742 1.097 1.017 0 1.915-.376 2.703-1.097.774-.774 1.066-1.858 1.136-2.585.054-.549.157-2.656.157-3.682 0-6.327 4.005-4.615 5.052-3.29.807 1.034 2.09 2.386 2.663 3.251 0 0 4.654 6.242 5.17 6.736.506.412 1.244.666 2.193.666 1.091 0 1.957-.364 2.625-.979.665-.693 1.018-1.63 1.018-2.82 0-.432-.132-.854-.392-1.331L93.561 26.32c-1.203-1.709-.728-3.331.588-4.777.729-.855 3.704-4.016 4.308-4.739 1.298-1.541 1.069-3.236-.118-4.426-1.24-1.193-3.415-1.232-4.856.195l-5.757 5.797c-1.377 1.373-4.778 1.546-4.778-1.488V5.171c0-3.798-1.826-4.661-3.642-4.661-.217 0-.44-.025-.667 0zm84.205 0c-1.168 0-2.059.361-2.741 1.136-.478.539-1.058 1.388-1.058 3.29V33.33c0 1.804-.005 3.236 0 4.112 0 1.47.349 2.576 1.058 3.369.708.731 1.616 1.136 2.741 1.136 1.144 0 2.095-.39 2.82-1.097.728-.759 1.097-1.756 1.097-6.658V5.053c0-1.518-.384-2.645-1.097-3.407-.707-.765-1.66-1.136-2.82-1.136zm13.512 0c-1.612.177-3.329 1.15-3.329 4.935v31.997c0 1.505.343 2.63 1.019 3.408.674.707 1.586 1.097 2.78 1.097 1.01 0 1.846-.376 2.625-1.097.773-.774 1.065-1.858 1.135-2.585.051-.549.118-2.656.118-3.682 0-.458.036-.87.078-1.254.51-4.818 4.087-3.267 5.052-2.036a72.268 72.268 0 0 0 1.685 2.036c.395.456.778.865 1.019 1.215 0 0 4.614 6.242 5.131 6.736.504.412 1.215.666 2.154.666 1.097 0 1.996-.364 2.662-.979.674-.693 1.02-1.63 1.02-2.82 0-.432-.136-.854-.393-1.331l-2.624-3.486-5.209-7.011c-1.218-1.709-.813-3.331.509-4.777.757-.856 3.791-4.016 4.387-4.739 1.297-1.541 1.072-3.236-.117-4.426-1.235-1.193-3.422-1.233-4.896.195-.819.822-3.335 3.419-5.757 5.797-1.379 1.373-4.779 1.546-4.779-1.488V5.17c0-3.797-1.833-4.66-3.563-4.66-.221 0-.476-.025-.707 0zM4.733 1.137c-2.362 0-4.23.964-4.23 3.485 0 1.349.763 3.446 3.525 3.446h2.35c5.58 0 7.011 2.558 7.011 9.126l.47 19.817c0 1.668.542 3.124 1.175 3.76.799.764 1.461 1.176 2.82 1.176 1.374 0 2.056-.412 2.859-1.176.633-.636 1.175-2.092 1.175-3.76l.431-19.817c0-6.568 1.401-9.126 6.972-9.126h2.428c2.726 0 3.486-2.098 3.486-3.446 0-2.521-1.859-3.485-4.191-3.485H4.733zm97.484 0c-2.366 0-4.27.963-4.27 3.485 0 1.349.762 3.407 3.525 3.407h2.35c5.62 0 7.049 2.597 7.049 9.165l.354 16.136.078 3.682c0 1.668.54 3.125 1.175 3.76.81.764 1.48 1.176 2.819 1.176 1.379 0 2.049-.412 2.859-1.176.639-.635 1.176-2.092 1.176-3.76l.078-3.682.352-16.136c0-6.568 1.445-9.165 6.973-9.165h2.428c2.765 0 3.525-2.059 3.525-3.407 0-2.522-1.863-3.485-4.23-3.485h-26.241zm-58.945 9.908c-2.967-.052-5.608.342-8.303 1.449-2.023.815-4.732 2.818-5.209 4.7-.211.831-.208 1.576.626 2.468.646.707 1.684 1.106 2.193 1.175 1.094.146 2.269-.005 3.29-1.019 1.247-1.279 2.01-1.896 2.898-2.232.695-.262 1.656-.676 3.368-.705 2.278-.037 3.797.39 4.622 1.488.932 1.238.668 3.333.47 3.799-.318.695-1.021.728-4.269 1.175-1.556.215-4.813.539-7.794 1.41-2.267.659-4.153 1.938-5.092 3.055-1.245 1.544-1.723 3.081-1.762 5.17-.023 1.495.409 3.766 1.253 5.053 2.493 3.777 6.063 3.889 7.598 3.917 5.171.091 8.493-1.989 9.792-2.859.855-.583 1.716-.446 2.115.039 1.065 1.294 1.159 1.542 1.802 2.076 1.107.831 2.553 1.319 4.583.039 1.612-1.073 2.235-2.922.783-5.483-.966-1.723-1.136-2.597-1.136-4.151 0-1.539.049-6.872.04-8.695-.017-2.907-.146-5.017-.901-6.697-.745-1.74-2.318-3.26-4.23-4.073-2.179-.898-4.956-1.065-6.737-1.099zm97.483 0c-2.997-.052-5.565.344-8.303 1.449-2.02.815-4.768 2.818-5.248 4.7-.212.831-.179 1.576.665 2.468.648.706 1.731 1.106 2.232 1.175 1.104.146 2.236-.005 3.252-1.019 1.275-1.279 2.068-1.896 2.858-2.232.708-.262 1.69-.674 3.407-.705 2.318-.037 3.821.39 4.66 1.488.94 1.238.674 3.333.471 3.799-.318.695-1.057.728-4.309 1.175-1.592.215-4.734.539-7.754 1.41-2.273.659-4.232 1.938-5.17 3.055-1.247 1.544-1.732 3.079-1.763 5.17a5.193 5.193 0 0 0 0 .353c.037 1.48.511 3.509 1.292 4.7 2.536 3.779 6.104 3.888 7.677 3.917 5.114.089 8.46-1.989 9.752-2.859.874-.583 1.72-.448 2.115.039.98 1.294 1.12 1.542 1.763 2.076 1.104.829 2.525 1.319 4.582.039 1.612-1.071 2.231-2.922.783-5.483-.564-1.013-.841-1.689-.979-2.428-.096-.52-.118-1.081-.118-1.724 0-1.539.052-6.87.04-8.695-.018-2.905-.145-5.015-.901-6.697-.77-1.74-2.402-3.258-4.309-4.073-2.12-.896-4.901-1.064-6.695-1.098zM44.604 28.631c.564-.017.975.011 1.292.039.8.066 1.254.505 1.371 1.331.11.781.021 1.909-.47 2.664-.594.861-1.176 1.456-2.585 1.997-2.641 1.039-4.811 1.194-6.07.47-.716-.409-1.139-1.116-1.292-2.075-.252-1.575.439-2.414.901-2.781.949-.748 2.308-1.158 4.621-1.449a23.327 23.327 0 0 1 2.232-.196zm97.522 0c.567-.017.974.011 1.292.039.796.064 1.251.504 1.371 1.331.109.779.023 1.907-.47 2.664-.169.235-.329.459-.509.665-.482.533-1.059.938-2.076 1.332-2.688 1.039-4.893 1.194-6.07.47-.651-.365-1.057-.972-1.254-1.802-.018-.079-.023-.196-.039-.273-.264-1.575.479-2.414.939-2.781.874-.747 2.217-1.16 4.544-1.449a24.156 24.156 0 0 1 2.272-.196z"></path>
</svg>
