<svg width="100" height="24" viewBox="0 0 100 24" fill="none" xmlns="http://www.w3.org/2000/svg">
<path d="M100 3.75096C100 4.89207 99.1795 5.63504 98.1457 5.63504C97.1103 5.63504 96.2898 4.89207 96.2898 3.75096C96.2898 2.60986 97.1103 1.86689 98.1457 1.86689C99.1795 1.86689 100 2.60986 100 3.75096ZM96.7589 3.75096C96.7589 4.63814 97.3739 5.2275 98.1488 5.2275C98.9144 5.2275 99.5309 4.63657 99.5309 3.75096C99.5309 2.86535 98.9144 2.27442 98.1394 2.27442C97.3739 2.27442 96.7589 2.86535 96.7589 3.75096ZM98.0124 2.71645C98.4312 2.71645 98.8171 2.8246 98.8171 3.32775C98.8171 3.59735 98.6854 3.79642 98.4563 3.91398L98.5222 4.03624C98.6901 4.35287 98.8281 4.55663 98.9599 4.72905C98.985 4.76511 98.9709 4.78548 98.8485 4.78548H98.6791C98.5771 4.78548 98.5363 4.78548 98.5003 4.74473C98.4297 4.66322 98.323 4.49864 98.1441 4.1632L98.0469 3.98922H97.8837V4.74473C97.8837 4.78078 97.8429 4.78548 97.6908 4.78548H97.65C97.4915 4.78548 97.4617 4.78078 97.4617 4.74473V2.75877C97.4617 2.72271 97.4758 2.71645 97.5888 2.71645H98.0124ZM97.8853 3.65378H98.0233C98.1551 3.65378 98.2524 3.61773 98.3073 3.56287C98.3653 3.50644 98.3889 3.43591 98.3889 3.33716C98.3889 3.24624 98.3638 3.18355 98.3183 3.13966C98.2618 3.08323 98.1598 3.06442 98.0124 3.06442H97.8853V3.65378Z" fill="white"/>
<path d="M88.6419 6.03788C88.6419 6.03788 88.278 6.03632 88.2058 6.28241C88.1336 6.52693 86.7798 13.1745 86.7798 13.1745C86.7798 13.1745 86.7578 13.3469 86.5994 13.3469C86.5021 13.3469 86.4409 13.2654 86.4205 13.1682L84.8439 6.17268L84.8376 6.17425C84.7906 6.02534 84.6086 6.03788 84.6086 6.03788H80.7902C80.7902 6.03788 80.591 6.05042 80.5235 6.30748C80.5109 6.35608 79.0473 13.1792 79.0473 13.1792C79.0473 13.1792 79.0363 13.3453 78.8716 13.3453C78.7743 13.3453 78.7069 13.2623 78.6912 13.1698L77.182 6.19463C77.1428 6.02221 77.0236 6.03632 77.0236 6.03632H72.4129C72.1101 6.03632 72.245 6.27457 72.245 6.27457L72.4913 6.95955C72.5008 6.97679 72.5055 6.99246 72.5102 7.0097V7.01284C72.5133 7.02381 72.518 7.03478 72.518 7.04732C72.518 7.14607 72.438 7.22445 72.3392 7.22445C72.3031 7.22445 72.267 7.21347 72.2372 7.19466C72.2231 7.18526 72.2121 7.17429 72.2011 7.16018L71.9909 6.96268C70.6574 5.84822 69.371 5.38426 67.4022 5.31372L67.3473 5.31058C64.1188 5.31058 62.5735 6.68994 61.844 7.49718C61.1491 8.2668 60.7537 9.31856 60.5106 10.0788C60.4949 10.1258 60.4776 10.154 60.4604 10.1697C60.4243 10.2089 60.3741 10.234 60.3192 10.234C60.2141 10.234 60.1341 10.154 60.1341 10.0506V10.049C60.1325 10.0459 60.1309 10.0427 60.1309 10.0427V6.2056C60.1309 6.2056 60.1404 6.13036 60.0854 6.0802C60.0211 6.02064 59.938 6.03475 59.938 6.03475H51.0979C51.0979 6.03475 51.032 6.02378 50.9787 6.0708C50.9128 6.13193 50.9159 6.16798 50.9159 6.16798L49.3738 13.2105C49.3738 13.2105 49.3377 13.3516 49.1871 13.3516C49.0397 13.3516 49.024 13.2184 49.024 13.2184L47.463 6.19149C47.463 6.19149 47.463 6.13036 47.4097 6.08491C47.3077 5.9987 47.2622 6.03318 47.2622 6.03318H38.4002C38.4002 6.03318 38.2057 6.00967 38.2057 6.18209C38.2057 7.35141 38.2135 11.5773 38.2135 11.8704V11.9252C38.2323 13.1478 37.9547 14.0538 37.393 14.6244C36.9742 15.0492 36.4126 15.2639 35.7239 15.2639C35.0414 15.2639 34.4814 15.0507 34.0641 14.6244C33.6735 14.2278 33.2122 13.4363 33.2358 11.9205V11.8735C33.2358 11.6744 33.242 7.45173 33.242 6.21814C33.242 6.01907 33.0381 6.03475 33.0381 6.03475H28.713C28.713 6.03475 28.5122 6.04886 28.5153 6.19776C28.5185 6.30592 28.4981 7.95958 28.5153 8.90005C28.5216 9.13674 28.2533 9.14301 28.1733 8.97999C28.098 8.84676 28.04 8.74958 28.04 8.74958C27.7011 8.13357 27.2901 7.61161 26.8148 7.19623C25.588 6.13663 23.8451 5.55981 21.6394 5.48614L21.5766 5.48301C18.6587 5.48301 16.9346 6.53477 16.0043 7.41881L15.7658 7.64452C15.7658 7.64452 15.6498 7.7903 15.5148 7.71036C15.3862 7.63512 15.4756 7.48151 15.4756 7.48151L15.8961 6.26203C15.8961 6.26203 15.9431 6.16485 15.8553 6.08334C15.7643 6.0034 15.7141 6.03161 15.7141 6.03161H11.0752C11.0595 6.03161 11.0422 6.03005 11.025 6.02848C10.9889 6.02534 10.8916 6.03161 10.8603 6.16014C10.8289 6.28554 9.56132 10.8986 9.0499 12.7764C8.95577 13.1243 8.71732 13.082 8.63574 12.8077C8.61064 12.7199 6.8944 6.25733 6.8944 6.25733C6.8944 6.25733 6.85831 6.08961 6.78301 6.04886C6.70771 6.00654 6.61515 6.03005 6.61515 6.03005H2.1253C2.1253 6.03005 1.97313 6.01751 1.88214 6.10999C1.78959 6.2009 1.86646 6.42348 1.86646 6.42348L5.87626 17.9537C6.0849 18.543 6.21041 18.9129 6.21041 19.1026C6.21041 19.7844 5.58603 19.8754 4.97891 19.8754L2.16296 19.8644C1.91038 19.8628 1.67663 19.9992 1.54799 20.2171L0.04824 22.8081C-0.01608 22.9162 -0.01608 23.051 0.04824 23.1607C0.110991 23.2689 0.22865 23.3379 0.354153 23.3379L6.46141 23.3332C7.56583 23.3332 8.51808 23.352 9.47818 22.5855C10.4069 21.8315 10.8587 20.7092 11.2744 19.5258L13.7139 12.5146C13.7139 12.5146 13.7437 12.3955 13.8613 12.3955C13.9806 12.3955 13.9868 12.5444 13.9868 12.5444L14.0339 13.0836C14.2284 15.6526 15.5823 17.0696 16.3714 17.6841C17.6421 18.6763 19.3019 19.181 21.3083 19.181C24.8726 19.181 26.6893 17.6057 27.3042 16.927C27.7968 16.3846 28.1859 15.742 28.4635 15.021L28.5357 14.8297C28.5357 14.8297 28.5592 14.7075 28.7036 14.7075C28.8259 14.7075 28.862 14.8062 28.862 14.8062L28.9405 15.0257C29.4252 16.3674 30.2221 17.2154 30.8057 17.6888C32.0388 18.6794 33.6452 19.181 35.5795 19.181H35.8698C37.8025 19.181 39.4105 18.6778 40.6436 17.6872C41.497 16.9959 42.9324 15.3956 42.9355 12.4597V9.48785C42.9355 9.48785 42.9214 9.28565 43.1112 9.28565C43.2509 9.28565 43.2807 9.40477 43.2807 9.40477L46.481 18.7092C46.481 18.7092 46.4904 18.7468 46.5453 18.7844C46.6018 18.822 46.6583 18.8189 46.6583 18.8189H51.8541C51.8541 18.8189 51.8854 18.833 51.9639 18.7766C52.0407 18.7201 52.0407 18.6637 52.0407 18.6637L54.8269 9.62421C54.8269 9.62421 54.8645 9.40164 55.0622 9.40164C55.2803 9.40164 55.2285 9.77626 55.2285 9.77626L55.2207 18.6418C55.2207 18.6418 55.2112 18.7029 55.2756 18.7672C55.343 18.8314 55.3995 18.8173 55.3995 18.8173H59.949C59.949 18.8173 60.018 18.8205 60.0698 18.764C60.1231 18.7076 60.1278 18.6778 60.1278 18.6496V14.5789C60.1278 14.4222 60.2753 14.4081 60.2753 14.4081C60.2753 14.4081 60.3929 14.3407 60.4839 14.5507C60.5027 14.5946 60.5137 14.6401 60.5294 14.6871C60.8541 15.6479 61.4283 16.8031 62.4229 17.5743C63.5007 18.4098 64.8687 18.8158 67.0932 18.8158H73.9205C73.9205 18.8158 74.1919 18.8471 74.0962 18.532L73.4263 16.4959C73.3761 16.3643 73.3197 16.2216 73.2679 16.0821C73.1691 15.8266 72.9228 15.7279 72.7 15.6918L67.0587 15.6887C66.0499 15.6887 65.3816 15.242 65.0538 14.372C65.0538 14.372 65.0004 14.2263 65.0522 14.14C65.1102 14.0397 65.2405 14.0538 65.2405 14.0538L73.7872 14.0554C73.8232 14.0491 73.8625 14.046 73.9017 14.046C74.2594 14.046 74.5559 14.2968 74.6265 14.6322L74.6327 14.6369L75.9317 18.6026C75.9317 18.6026 75.938 18.8173 76.1952 18.8173H80.762C80.9361 18.8173 80.9988 18.648 80.9988 18.648L82.497 12.8469C82.497 12.7497 82.5755 12.6698 82.6743 12.6698C82.7716 12.6698 82.8531 12.7497 82.8531 12.8469L84.4894 18.8189H89.4373L92.1105 9.85306C92.1105 9.85306 92.1842 9.64459 92.3019 9.57562C92.4211 9.50666 92.589 9.49568 92.589 9.49568L94.4825 9.49725C94.779 9.49882 95.0425 9.31543 95.1477 9.03799L96.1501 6.34197C96.1768 6.26987 96.1674 6.18836 96.1234 6.12409C96.0795 6.0614 96.0058 6.02378 95.9289 6.02378L88.6419 6.03788ZM21.506 15.9034H21.448C19.6188 15.9034 18.6901 14.5883 18.6901 11.9958C18.6901 9.61794 19.7051 8.25426 21.4746 8.25426C23.2521 8.25426 24.2655 9.61794 24.2655 11.9958C24.2639 14.5883 23.3368 15.9034 21.506 15.9034ZM70.2323 11.1603C70.226 11.2403 70.1586 11.2998 70.0801 11.3061H64.9236C64.8404 11.3061 64.7698 11.2418 64.7635 11.1588L64.7714 10.7779C64.8749 8.2041 67.1716 8.17432 67.4399 8.17432H67.5199C67.7881 8.17432 69.895 8.13827 70.2041 10.7935C70.2041 10.7935 70.2182 10.9628 70.2245 11.0898C70.2339 11.2152 70.2323 11.1603 70.2323 11.1603Z" fill="white"/>
<path d="M59.9851 0.89977C59.9851 0.769672 59.8785 0.663086 59.7482 0.663086H55.5894C55.4592 0.663086 55.3525 0.769672 55.3525 0.89977V4.43908C55.3525 4.56918 55.4576 4.67576 55.5894 4.67576H59.7482C59.8785 4.67576 59.9851 4.56918 59.9851 4.43908V0.89977Z" fill="white"/>
</svg>
